#!OML:ASF G:\JayActor3\Patient Classification 1\Patient 1\Session 5\male.ASF
:FULLY-SPECIFIED
:DEGREES
986
root -53.2049 17.4089 -7.38971 1548.18 -80.4093 -1548.94
lowerback 1.00332 0.601375 11.3412
upperback 1.42556 0.780111 0.938592
thorax 1.07467 0.480339 -5.37767
lowerneck -6.66802 -0.623199 2.17081
upperneck 7.63854 -1.1823 1.09122
head 3.65487 -0.485024 -0.0854218
rclavicle 1.82882e-014 4.53229e-014
rhumerus -28.4003 2.26525 -90.7175
rradius 39.159
rwrist -7.40411
rhand -18.0542 -8.12037
rfingers 7.12502
rthumb 8.21801 -37.9405
lclavicle 1.82882e-014 4.53229e-014
lhumerus -33.7697 13.765 77.5724
lradius 21.3741
lwrist 13.378
lhand -17.6334 11.4672
lfingers 7.12502
lthumb 8.62415 41.271
rfemur 15.3741 -5.86963 33.8396
rtibia 12.1313
rfoot -5.65408 -6.99145
rtoes -25.8898
lfemur -26.6918 8.56515 -13.0967
ltibia 19.0976
lfoot 6.07004 -3.23962
ltoes -53.3379
987
root -53.3549 17.3956 -7.38462 1549.88 -80.3445 -1550.66
lowerback 0.859187 0.628009 11.3013
upperback 1.4314 0.796923 0.899172
thorax 1.16484 0.49416 -5.39494
lowerneck -6.6814 -0.657752 2.16406
upperneck 7.70103 -1.23252 1.11529
head 3.67938 -0.508569 -0.0791654
rclavicle 8.94531e-016 -1.90833e-014
rhumerus -28.4244 1.99435 -90.6854
rradius 38.7379
rwrist -7.24166
rhand -17.7646 -8.06874
rfingers 7.12502
rthumb 8.4975 -37.8778
lclavicle 8.94531e-016 -1.90833e-014
lhumerus -33.8206 14.0017 77.3723
lradius 21.1311
lwrist 13.1571
lhand -17.6551 11.4305
lfingers 7.12502
lthumb 8.60323 41.2352
rfemur 16.0769 -5.77938 33.605
rtibia 11.8382
rfoot -5.30737 -6.82209
rtoes -26.0376
lfemur -26.4695 8.69566 -13.2083
ltibia 19.105
lfoot 6.22386 -3.44459
ltoes -53.6419
988
root -53.5077 17.3806 -7.37941 1551.65 -80.2812 -1552.45
lowerback 0.708989 0.654469 11.2408
upperback 1.4341 0.813409 0.85565
thorax 1.25471 0.507561 -5.40492
lowerneck -6.75799 -0.671818 2.09468
upperneck 7.8326 -1.25992 1.21998
head 3.74183 -0.518259 -0.0345839
rclavicle 5.69021e-015 -2.74323e-014
rhumerus -28.4754 1.68669 -90.6401
rradius 38.2996
rwrist -7.06809
rhand -17.469 -8.05569
rfingers 7.12502
rthumb 8.78279 -37.8529
lclavicle 5.69021e-015 -2.74323e-014
lhumerus -33.8898 14.216 77.176
lradius 20.9056
lwrist 12.9638
lhand -17.6599 11.41
lfingers 7.12502
lthumb 8.59854 41.2149
rfemur 16.6808 -5.66541 33.3536
rtibia 11.7536
rfoot -5.00588 -6.65
rtoes -26.0116
lfemur -26.1597 8.87065 -13.3364
ltibia 19.1569
lfoot 6.28016 -3.64578
ltoes -53.7992
989
root -53.6631 17.3641 -7.37441 1553.44 -80.2115 -1554.27
lowerback 0.547221 0.677878 11.1626
upperback 1.43543 0.824804 0.812909
thorax 1.34838 0.518359 -5.40398
lowerneck -6.82837 -0.69973 2.05757
upperneck 7.95786 -1.30564 1.28766
head 3.80052 -0.537686 -0.00877589
rclavicle 9.75287e-015 -2.78299e-015
rhumerus -28.5616 1.37737 -90.5923
rradius 37.8416
rwrist -6.86052
rhand -17.2101 -8.01803
rfingers 7.12502
rthumb 9.03265 -37.8046
lclavicle 9.75287e-015 -2.78299e-015
lhumerus -33.9746 14.4154 76.9806
lradius 20.6958
lwrist 12.7945
lhand -17.6386 11.4075
lfingers 7.12502
lthumb 8.61912 41.2116
rfemur 17.1974 -5.50797 33.1088
rtibia 11.8534
rfoot -4.74292 -6.50192
rtoes -25.7385
lfemur -25.7672 9.05675 -13.4558
ltibia 19.2667
lfoot 6.08507 -3.83423
ltoes -53.8921
990
root -53.821 17.3454 -7.36991 1555.24 -80.109 -1556.11
lowerback 0.382335 0.706241 11.0931
upperback 1.43594 0.84249 0.776637
thorax 1.44415 0.532278 -5.40095
lowerneck -6.87958 -0.716854 1.96992
upperneck 8.0568 -1.33681 1.42142
head 3.84724 -0.548933 0.0488355
rclavicle -2.83889e-014 -2.74323e-014
rhumerus -28.6959 1.07381 -90.5483
rradius 37.3693
rwrist -6.55572
rhand -17.1084 -8.04643
rfingers 7.12502
rthumb 9.1307 -37.8288
lclavicle -2.83889e-014 -2.74323e-014
lhumerus -34.065 14.5804 76.8007
lradius 20.5013
lwrist 12.6495
lhand -17.607 11.4061
lfingers 7.12502
lthumb 8.64956 41.2089
rfemur 17.616 -5.29778 32.8997
rtibia 12.146
rfoot -4.50432 -6.39634
rtoes -25.265
lfemur -25.3004 9.26296 -13.5415
ltibia 19.4222
lfoot 5.49025 -4.0131
ltoes -54.0053
991
root -53.9814 17.3246 -7.36536 1557.07 -79.9788 -1557.99
lowerback 0.211604 0.737024 11.0306
upperback 1.43435 0.862987 0.741869
thorax 1.54162 0.547604 -5.40008
lowerneck -6.91824 -0.736799 1.90284
upperneck 8.14409 -1.37195 1.5388
head 3.88728 -0.562396 0.0973502
rclavicle 2.5842e-015 9.54166e-015
rhumerus -28.8885 0.791841 -90.5161
rradius 36.8909
rwrist -6.17093
rhand -17.1764 -8.07029
rfingers 7.12502
rthumb 9.06513 -37.8555
lclavicle 2.5842e-015 9.54166e-015
lhumerus -34.1708 14.713 76.6277
lradius 20.3241
lwrist 12.5371
lhand -17.5794 11.42
lfingers 7.12502
lthumb 8.6762 41.2217
rfemur 17.9473 -5.06388 32.6984
rtibia 12.623
rfoot -4.2326 -6.31565
rtoes -24.6834
lfemur -24.7554 9.48496 -13.6034
ltibia 19.6225
lfoot 4.46001 -4.14557
ltoes -54.0782
992
root -54.1435 17.3025 -7.36024 1558.8 -79.8334 -1559.76
lowerback 0.0321358 0.756157 10.9795
upperback 1.41293 0.868329 0.714254
thorax 1.62065 0.553682 -5.39828
lowerneck -6.82956 -0.760901 1.86341
upperneck 8.15962 -1.40557 1.60417
head 3.876 -0.578157 0.124563
rclavicle -2.72087e-015 -1.47101e-014
rhumerus -29.1648 0.582225 -90.503
rradius 36.3961
rwrist -5.66197
rhand -17.4721 -8.17879
rfingers 7.12502
rthumb 8.77983 -37.9762
lclavicle -2.72087e-015 -1.47101e-014
lhumerus -34.3272 14.8432 76.4534
lradius 20.168
lwrist 12.4421
lhand -17.5572 11.4358
lfingers 7.12502
lthumb 8.69768 41.2367
rfemur 18.1703 -4.83666 32.5004
rtibia 13.2763
rfoot -3.90444 -6.2661
rtoes -24.0562
lfemur -24.1587 9.6618 -13.6407
ltibia 19.8641
lfoot 3.17854 -4.13004
ltoes -53.941
993
root -54.3071 17.2801 -7.35467 1560.32 -79.6894 -1561.32
lowerback -0.168145 0.756018 10.9375
upperback 1.37917 0.846166 0.693238
thorax 1.69375 0.54528 -5.39508
lowerneck -6.7177 -0.780484 1.8026
upperneck 8.1796 -1.42993 1.66314
head 3.86186 -0.590456 0.154044
rclavicle -5.01931e-015 -5.1684e-015
rhumerus -29.4724 0.395578 -90.4841
rradius 35.8818
rwrist -5.11815
rhand -17.8375 -8.29182
rfingers 7.12502
rthumb 8.42718 -38.1037
lclavicle -5.01931e-015 -5.1684e-015
lhumerus -34.5201 15.0013 76.274
lradius 20.0339
lwrist 12.3438
lhand -17.548 11.4524
lfingers 7.12502
lthumb 8.70658 41.2528
rfemur 18.2886 -4.63997 32.3025
rtibia 14.0769
rfoot -3.5006 -6.25581
rtoes -23.5054
lfemur -23.5322 9.74618 -13.6514
ltibia 20.1519
lfoot 1.96397 -3.80216
ltoes -53.1071
994
root -54.4716 17.2595 -7.34892 1561.68 -79.576 -1562.69
lowerback -0.388954 0.732205 10.8766
upperback 1.33108 0.791529 0.67123
thorax 1.75735 0.519496 -5.38321
lowerneck -6.53458 -0.795743 1.74719
upperneck 8.15401 -1.44459 1.70542
head 3.81731 -0.599537 0.177932
rclavicle -2.47238e-015 -7.95139e-016
rhumerus -29.7924 0.230234 -90.4596
rradius 35.3235
rwrist -4.57802
rhand -18.2457 -8.38968
rfingers 7.12502
rthumb 8.03322 -38.217
lclavicle -2.47238e-015 -7.95139e-016
lhumerus -34.75 15.1986 76.0792
lradius 19.91
lwrist 12.2257
lhand -17.5648 11.4559
lfingers 7.12502
lthumb 8.69033 41.2571
rfemur 18.3034 -4.49183 32.0746
rtibia 15.0019
rfoot -3.00958 -6.28374
rtoes -23.0679
lfemur -22.8904 9.7338 -13.6649
ltibia 20.477
lfoot 1.07678 -3.15545
ltoes -51.6092
995
root -54.6363 17.2428 -7.34355 1562.95 -79.5046 -1563.98
lowerback -0.616227 0.690748 10.7799
upperback 1.27974 0.714079 0.641874
thorax 1.81674 0.481706 -5.35991
lowerneck -6.31003 -0.813261 1.6796
upperneck 8.08283 -1.45931 1.75264
head 3.74878 -0.609573 0.2058
rclavicle -6.98852e-015 -7.55382e-015
rhumerus -30.1108 0.0620719 -90.423
rradius 34.7308
rwrist -4.03358
rhand -18.6606 -8.55066
rfingers 7.12502
rthumb 7.6328 -38.3929
lclavicle -6.98852e-015 -7.55382e-015
lhumerus -34.9885 15.4292 75.876
lradius 19.7901
lwrist 12.0828
lhand -17.602 11.4689
lfingers 7.12502
lthumb 8.65447 41.2715
rfemur 18.2309 -4.40388 31.7933
rtibia 16.0208
rfoot -2.41198 -6.34613
rtoes -22.7713
lfemur -22.238 9.64067 -13.6955
ltibia 20.8408
lfoot 0.553625 -2.2403
ltoes -49.4744
